<svg width="32" height="32" viewBox="0 0 32 32" fill="none" xmlns="http://www.w3.org/2000/svg">
<path d="M0 16C0 11.7565 1.68571 7.68687 4.68629 4.68629C7.68687 1.68571 11.7565 0 16 0C20.2435 0 24.3131 1.68571 27.3137 4.68629C30.3143 7.68687 32 11.7565 32 16C32 20.2435 30.3143 24.3131 27.3137 27.3137C24.3131 30.3143 20.2435 32 16 32C11.7565 32 7.68687 30.3143 4.68629 27.3137C1.68571 24.3131 0 20.2435 0 16ZM18 6C18 5.46957 17.7893 4.96086 17.4142 4.58579C17.0391 4.21071 16.5304 4 16 4C15.4696 4 14.9609 4.21071 14.5858 4.58579C14.2107 4.96086 14 5.46957 14 6C14 6.53043 14.2107 7.03914 14.5858 7.41421C14.9609 7.78929 15.4696 8 16 8C16.5304 8 17.0391 7.78929 17.4142 7.41421C17.7893 7.03914 18 6.53043 18 6ZM16 26C18.2062 26 20 24.2062 20 22C20 20.9125 19.5687 19.9312 18.8687 19.2125L22.875 10.1062C23.2063 9.35 22.8625 8.4625 22.1063 8.13125C21.35 7.8 20.4625 8.14375 20.1313 8.9L16.1187 18C16.0812 18 16.0375 18 16 18C13.7938 18 12 19.7938 12 22C12 24.2062 13.7938 26 16 26ZM11 9C11 8.46957 10.7893 7.96086 10.4142 7.58579C10.0391 7.21071 9.53043 7 9 7C8.46957 7 7.96086 7.21071 7.58579 7.58579C7.21071 7.96086 7 8.46957 7 9C7 9.53043 7.21071 10.0391 7.58579 10.4142C7.96086 10.7893 8.46957 11 9 11C9.53043 11 10.0391 10.7893 10.4142 10.4142C10.7893 10.0391 11 9.53043 11 9ZM6 18C6.53043 18 7.03914 17.7893 7.41421 17.4142C7.78929 17.0391 8 16.5304 8 16C8 15.4696 7.78929 14.9609 7.41421 14.5858C7.03914 14.2107 6.53043 14 6 14C5.46957 14 4.96086 14.2107 4.58579 14.5858C4.21071 14.9609 4 15.4696 4 16C4 16.5304 4.21071 17.0391 4.58579 17.4142C4.96086 17.7893 5.46957 18 6 18ZM28 16C28 15.4696 27.7893 14.9609 27.4142 14.5858C27.0391 14.2107 26.5304 14 26 14C25.4696 14 24.9609 14.2107 24.5858 14.5858C24.2107 14.9609 24 15.4696 24 16C24 16.5304 24.2107 17.0391 24.5858 17.4142C24.9609 17.7893 25.4696 18 26 18C26.5304 18 27.0391 17.7893 27.4142 17.4142C27.7893 17.0391 28 16.5304 28 16Z" fill="#4D4D4D"/>
</svg>
