<svg width="28" height="32" viewBox="0 0 28 32" fill="none" xmlns="http://www.w3.org/2000/svg">
<g clip-path="url(#clip0_154_130)">
<path d="M0 4C0 1.79375 1.79375 0 4 0H24C26.2062 0 28 1.79375 28 4V28C28 30.2062 26.2062 32 24 32H4C1.79375 32 0 30.2062 0 28V4ZM11.4375 17.425C9.69375 16.6 8.4125 14.9625 8.08125 13H10.525C10.625 14.9 11.0062 16.3625 11.4375 17.425ZM14.0188 18H14H13.9812C13.8312 17.7812 13.625 17.4437 13.4125 16.9688C13.0375 16.1187 12.6375 14.825 12.525 13H15.4688C15.3563 14.825 14.9625 16.1187 14.5813 16.9688C14.3688 17.4437 14.1625 17.7812 14.0125 18H14.0188ZM16.5625 17.425C16.9875 16.3562 17.3688 14.9 17.475 13H19.9188C19.5875 14.9625 18.3062 16.6 16.5625 17.425ZM17.475 11C17.375 9.1 16.9938 7.6375 16.5625 6.575C18.3062 7.4 19.5875 9.0375 19.9188 11H17.475ZM13.9812 6H14H14.0188C14.1688 6.21875 14.375 6.55625 14.5875 7.03125C14.9625 7.88125 15.3625 9.175 15.475 11H12.5312C12.6437 9.175 13.0375 7.88125 13.4187 7.03125C13.6312 6.55625 13.8375 6.21875 13.9875 6H13.9812ZM11.4375 6.575C11.0125 7.64375 10.6312 9.1 10.525 11H8.08125C8.4125 9.0375 9.69375 7.4 11.4375 6.575ZM22 12C22 9.87827 21.1571 7.84344 19.6569 6.34315C18.1566 4.84285 16.1217 4 14 4C11.8783 4 9.84344 4.84285 8.34315 6.34315C6.84285 7.84344 6 9.87827 6 12C6 14.1217 6.84285 16.1566 8.34315 17.6569C9.84344 19.1571 11.8783 20 14 20C16.1217 20 18.1566 19.1571 19.6569 17.6569C21.1571 16.1566 22 14.1217 22 12ZM7 24C6.45 24 6 24.45 6 25C6 25.55 6.45 26 7 26H21C21.55 26 22 25.55 22 25C22 24.45 21.55 24 21 24H7Z" fill="#4D4D4D"/>
</g>
<defs>
<clipPath id="clip0_154_130">
<rect width="28" height="32" fill="white"/>
</clipPath>
</defs>
</svg>
