<svg width="28" height="32" viewBox="0 0 28 32" fill="none" xmlns="http://www.w3.org/2000/svg">
<g clip-path="url(#clip0_154_128)">
<path d="M6 8C6 10.1217 6.84285 12.1566 8.34315 13.6569C9.84344 15.1571 11.8783 16 14 16C16.1217 16 18.1566 15.1571 19.6569 13.6569C21.1571 12.1566 22 10.1217 22 8C22 5.87827 21.1571 3.84344 19.6569 2.34315C18.1566 0.842855 16.1217 0 14 0C11.8783 0 9.84344 0.842855 8.34315 2.34315C6.84285 3.84344 6 5.87827 6 8ZM11.9062 20.5125L13.0688 22.45L10.9875 30.1938L8.7375 21.0125C8.6125 20.5063 8.125 20.175 7.61875 20.3062C3.24375 21.4 0 25.3625 0 30.0812C0 31.1437 0.8625 32 1.91875 32H10.15C10.15 32 10.15 32 10.1562 32H10.5H17.5H17.8438C17.8438 32 17.8438 32 17.85 32H26.0812C27.1437 32 28 31.1375 28 30.0812C28 25.3625 24.7563 21.4 20.3813 20.3062C19.875 20.1812 19.3875 20.5125 19.2625 21.0125L17.0125 30.1938L14.9312 22.45L16.0938 20.5125C16.4938 19.8438 16.0125 19 15.2375 19H14H12.7688C11.9938 19 11.5125 19.85 11.9125 20.5125H11.9062Z" fill="#4D4D4D"/>
</g>
<defs>
<clipPath id="clip0_154_128">
<rect width="28" height="32" fill="white"/>
</clipPath>
</defs>
</svg>
