<svg width="32" height="32" viewBox="0 0 32 32" fill="none" xmlns="http://www.w3.org/2000/svg">
<path d="M8 4C8 1.79375 9.79375 0 12 0H22V8C22 9.10625 22.8937 10 24 10H32V28C32 30.2062 30.2062 32 28 32H12C9.79375 32 8 30.2062 8 28V21H18.8813L16.4438 23.4375C15.8563 24.025 15.8563 24.975 16.4438 25.5562C17.0313 26.1375 17.9812 26.1437 18.5625 25.5562L23.5625 20.5562C24.15 19.9687 24.15 19.0188 23.5625 18.4375L18.5625 13.4375C17.975 12.85 17.025 12.85 16.4438 13.4375C15.8625 14.025 15.8563 14.975 16.4438 15.5562L18.8813 17.9937L8 18V4ZM8 18V21H1.5C0.66875 21 0 20.3313 0 19.5C0 18.6687 0.66875 18 1.5 18H8ZM32 8H24V0L32 8Z" fill="#D80434"/>
</svg>
