<svg width="28" height="32" viewBox="0 0 28 32" fill="none" xmlns="http://www.w3.org/2000/svg">
<g clip-path="url(#clip0_154_104)">
<path d="M13.7071 0.0312988C13.9008 -0.00620117 14.1008 -0.00620117 14.2946 0.0312988L26.7946 2.5313C27.4946 2.6688 28.0008 3.28755 28.0008 4.00005C28.0008 4.71255 27.4946 5.3313 26.7946 5.4688L22.0008 6.4313V10C22.0008 14.4188 18.4196 18 14.0008 18C9.58208 18 6.00083 14.4188 6.00083 10V6.4313L3.00083 5.8313V9.90005L3.98208 14.8C4.03833 15.0938 3.96333 15.4 3.77583 15.6313C3.58833 15.8625 3.30083 16 3.00083 16H1.00083C0.700829 16 0.419579 15.8688 0.225829 15.6313C0.0320791 15.3938 -0.0429209 15.0938 0.0195791 14.8L1.00083 9.90005V5.41255C0.407079 5.2063 0.000829085 4.6438 0.000829085 4.00005C0.000829085 3.28755 0.507079 2.6688 1.20708 2.5313L13.7071 0.0312988ZM6.99458 20.4813C7.65083 20.2688 8.35708 20.5063 8.83208 21.0126L13.2696 25.7313C13.6633 26.1501 14.3321 26.1501 14.7258 25.7313L19.1633 21.0126C19.6383 20.5063 20.3446 20.2688 21.0008 20.4813C25.0633 21.7876 28.0008 25.5875 28.0008 30.0813C28.0008 31.1438 27.1383 32 26.0821 32H1.91958C0.863329 32 0.000829085 31.1375 0.000829085 30.0813C0.000829085 25.5875 2.93833 21.7876 6.99458 20.4813Z" fill="#D80434"/>
</g>
<defs>
<clipPath id="clip0_154_104">
<rect width="28" height="32" fill="white"/>
</clipPath>
</defs>
</svg>
