<svg width="38" height="38" viewBox="0 0 38 38" fill="none" xmlns="http://www.w3.org/2000/svg">
<g clip-path="url(#clip0_176_115)">
<path d="M19 38C24.0391 38 28.8718 35.9982 32.435 32.435C35.9982 28.8718 38 24.0391 38 19C38 13.9609 35.9982 9.12816 32.435 5.56497C28.8718 2.00178 24.0391 0 19 0C13.9609 0 9.12816 2.00178 5.56497 5.56497C2.00178 9.12816 0 13.9609 0 19C0 24.0391 2.00178 28.8718 5.56497 32.435C9.12816 35.9982 13.9609 38 19 38ZM27.3867 15.5117L17.8867 25.0117C17.1891 25.7094 16.0609 25.7094 15.3707 25.0117L10.6207 20.2617C9.92305 19.5641 9.92305 18.4359 10.6207 17.7457C11.3184 17.0555 12.4465 17.048 13.1367 17.7457L16.625 21.234L24.8633 12.9883C25.5609 12.2906 26.6891 12.2906 27.3793 12.9883C28.0695 13.6859 28.077 14.8141 27.3793 15.5043L27.3867 15.5117Z" fill="#4D4D4D"/>
</g>
<defs>
<clipPath id="clip0_176_115">
<rect width="38" height="38" fill="white"/>
</clipPath>
</defs>
</svg>
