<svg width="38" height="38" viewBox="0 0 38 38" fill="none" xmlns="http://www.w3.org/2000/svg">
<path d="M4.75 9.5H7.91667H33.25" stroke="#D80434" stroke-width="2" stroke-linecap="round" stroke-linejoin="round"/>
<path d="M12.666 9.50008V6.33341C12.666 5.49356 12.9996 4.68811 13.5935 4.09424C14.1874 3.50038 14.9928 3.16675 15.8327 3.16675H22.166C23.0059 3.16675 23.8113 3.50038 24.4052 4.09424C24.9991 4.68811 25.3327 5.49356 25.3327 6.33341V9.50008M30.0827 9.50008V31.6667C30.0827 32.5066 29.7491 33.3121 29.1552 33.9059C28.5613 34.4998 27.7559 34.8334 26.916 34.8334H11.0827C10.2428 34.8334 9.43738 34.4998 8.84351 33.9059C8.24965 33.3121 7.91602 32.5066 7.91602 31.6667V9.50008H30.0827Z" stroke="#D80434" stroke-width="3" stroke-linecap="round" stroke-linejoin="round"/>
</svg>
