<svg width="32" height="34" viewBox="0 0 32 34" fill="none" xmlns="http://www.w3.org/2000/svg">
<path d="M2.11747 0.431478C1.06943 2.06106 -0.415296 11.3497 0.108725 13.3052C0.458073 14.4459 1.68079 15.8311 2.81617 16.32C4.91225 17.2162 4.99959 17.5421 4.99959 25.2827C4.99959 31.7195 5.2616 33.4306 6.30964 33.7565C9.27909 34.8158 10.2398 32.5343 10.2398 24.6308C10.2398 17.7866 10.4145 16.9718 11.9865 16.157C14.956 14.6904 15.48 12.0015 13.9953 6.05355C13.2966 3.1203 12.3359 0.675916 11.8992 0.675916C11.4625 0.675916 11.1132 2.87586 11.1132 5.4832C11.1132 8.17202 10.7638 10.5349 10.3271 10.7794C9.45377 11.2682 8.49306 7.4387 8.49306 3.44621C8.49306 -1.19811 6.921 -0.383316 6.30964 4.50545C5.43627 11.6756 4.73758 12.246 4.21356 6.21651C3.68954 1.00183 2.99084 -0.953671 2.11747 0.431478Z" fill="#D80434"/>
<path d="M26.0476 1.57194C22.2048 3.6904 19.8467 8.8236 19.8467 14.9346C19.8467 20.3122 21.4187 23.4899 24.2135 23.4899C25.6109 23.4899 25.8729 24.2232 26.1349 28.6231C26.3969 33.4304 26.4843 33.6748 28.5804 33.6748H30.7638L31.0258 17.2975C31.2878 -0.872445 31.1131 -1.36132 26.0476 1.57194Z" fill="#D80434"/>
</svg>
