<svg width="32" height="32" viewBox="0 0 32 32" fill="none" xmlns="http://www.w3.org/2000/svg">
<path d="M22.0117 26.6127L17.0617 31.5627C16.4742 32.1502 15.5242 32.1502 14.943 31.5627L9.99297 26.6127C9.04922 25.6689 9.71797 24.0502 11.0555 24.0502H14.2555L14.2492 17.7502H7.94922V20.9502C7.94922 22.2877 6.33047 22.9564 5.38672 22.0127L0.436719 17.0564C-0.150781 16.4689 -0.150781 15.5189 0.436719 14.9377L5.38672 9.9877C6.33047 9.04395 7.94922 9.7127 7.94922 11.0502V14.2502H14.2492V7.9502H11.0492C9.71172 7.9502 9.04297 6.33145 9.98672 5.3877L14.9367 0.437695C15.5242 -0.149805 16.4742 -0.149805 17.0555 0.437695L22.0055 5.3877C22.9492 6.33145 22.2805 7.9502 20.943 7.9502H17.743V14.2502H24.043V11.0502C24.043 9.7127 25.6617 9.04395 26.6055 9.9877L31.5555 14.9377C32.143 15.5252 32.143 16.4752 31.5555 17.0564L26.6117 22.0127C25.668 22.9564 24.0492 22.2877 24.0492 20.9502V17.7502H17.7492V24.0502H20.9492C22.2867 24.0502 22.9555 25.6689 22.0117 26.6127Z" fill="#D80434"/>
</svg>
