<svg width="40" height="28" viewBox="0 0 40 28" fill="none" xmlns="http://www.w3.org/2000/svg">
<path d="M6 2C6 0.89375 6.89375 0 8 0H10C11.1063 0 12 0.89375 12 2V12V16V26C12 27.1063 11.1063 28 10 28H8C6.89375 28 6 27.1063 6 26V22H4C2.89375 22 2 21.1063 2 20V16C0.89375 16 0 15.1063 0 14C0 12.8937 0.89375 12 2 12V8C2 6.89375 2.89375 6 4 6H6V2ZM34 2V6H36C37.1063 6 38 6.89375 38 8V12C39.1063 12 40 12.8937 40 14C40 15.1063 39.1063 16 38 16V20C38 21.1063 37.1063 22 36 22H34V26C34 27.1063 33.1063 28 32 28H30C28.8937 28 28 27.1063 28 26V16V12V2C28 0.89375 28.8937 0 30 0H32C33.1063 0 34 0.89375 34 2ZM26 12V16H14V12H26Z" fill="#D80434"/>
</svg>
