<svg width="32" height="38" viewBox="0 0 32 38" fill="none" xmlns="http://www.w3.org/2000/svg">
<g clip-path="url(#clip0_129_143)">
<path d="M4 0C1.79167 0 0 1.5957 0 3.5625V34.4375C0 36.4043 1.79167 38 4 38H12V32.0625C12 30.0957 13.7917 28.5 16 28.5C18.2083 28.5 20 30.0957 20 32.0625V38H28C30.2083 38 32 36.4043 32 34.4375V3.5625C32 1.5957 30.2083 0 28 0H4ZM5.33333 17.8125C5.33333 17.1594 5.93333 16.625 6.66667 16.625H9.33333C10.0667 16.625 10.6667 17.1594 10.6667 17.8125V20.1875C10.6667 20.8406 10.0667 21.375 9.33333 21.375H6.66667C5.93333 21.375 5.33333 20.8406 5.33333 20.1875V17.8125ZM14.6667 16.625H17.3333C18.0667 16.625 18.6667 17.1594 18.6667 17.8125V20.1875C18.6667 20.8406 18.0667 21.375 17.3333 21.375H14.6667C13.9333 21.375 13.3333 20.8406 13.3333 20.1875V17.8125C13.3333 17.1594 13.9333 16.625 14.6667 16.625ZM21.3333 17.8125C21.3333 17.1594 21.9333 16.625 22.6667 16.625H25.3333C26.0667 16.625 26.6667 17.1594 26.6667 17.8125V20.1875C26.6667 20.8406 26.0667 21.375 25.3333 21.375H22.6667C21.9333 21.375 21.3333 20.8406 21.3333 20.1875V17.8125ZM6.66667 7.125H9.33333C10.0667 7.125 10.6667 7.65937 10.6667 8.3125V10.6875C10.6667 11.3406 10.0667 11.875 9.33333 11.875H6.66667C5.93333 11.875 5.33333 11.3406 5.33333 10.6875V8.3125C5.33333 7.65937 5.93333 7.125 6.66667 7.125ZM13.3333 8.3125C13.3333 7.65937 13.9333 7.125 14.6667 7.125H17.3333C18.0667 7.125 18.6667 7.65937 18.6667 8.3125V10.6875C18.6667 11.3406 18.0667 11.875 17.3333 11.875H14.6667C13.9333 11.875 13.3333 11.3406 13.3333 10.6875V8.3125ZM22.6667 7.125H25.3333C26.0667 7.125 26.6667 7.65937 26.6667 8.3125V10.6875C26.6667 11.3406 26.0667 11.875 25.3333 11.875H22.6667C21.9333 11.875 21.3333 11.3406 21.3333 10.6875V8.3125C21.3333 7.65937 21.9333 7.125 22.6667 7.125Z" fill="#D80434"/>
</g>
<defs>
<clipPath id="clip0_129_143">
<rect width="32" height="38" fill="white"/>
</clipPath>
</defs>
</svg>
