<svg width="32" height="40" viewBox="0 0 32 40" fill="none" xmlns="http://www.w3.org/2000/svg">
<g clip-path="url(#clip0_129_148)">
<rect width="32" height="40" fill="white"/>
<path d="M14.3583 39.1953C2.25 22.7344 0 21.0469 0 15C0 6.71875 7.16667 0 16 0C24.8333 0 32 6.71875 32 15C32 21.0469 29.75 22.7344 17.6417 39.1953C16.85 40.2734 15.15 40.2734 14.35 39.1953H14.3583ZM16 21.25C19.6833 21.25 22.6667 18.4531 22.6667 15C22.6667 11.5469 19.6833 8.75 16 8.75C12.3167 8.75 9.33333 11.5469 9.33333 15C9.33333 18.4531 12.3167 21.25 16 21.25Z" fill="#D80434"/>
</g>
<defs>
<clipPath id="clip0_129_148">
<rect width="32" height="40" fill="white"/>
</clipPath>
</defs>
</svg>
