<svg width="40" height="31" viewBox="0 0 40 31" fill="none" xmlns="http://www.w3.org/2000/svg">
<path d="M5.18872 3.93965C2.48718 6.10265 0.171577 8.1884 0.0172029 8.57465C-0.291545 9.4244 3.64499 14.6774 4.64841 14.6774C5.11154 14.6774 6.42371 13.9822 7.6587 13.0552L9.89712 11.5102V20.2394C9.89712 26.0332 10.2059 29.3549 10.8234 29.9729C12.0584 31.2089 27.8045 31.2089 29.0395 29.9729C29.657 29.3549 29.9657 26.0332 29.9657 20.2394V11.4329L31.741 12.6689C34.9829 15.0637 35.6003 15.0637 37.8388 12.3599C38.9966 10.8922 40 9.2699 40 8.8064C40 7.4159 29.9657 -9.62019e-05 28.1132 -9.62019e-05C27.1098 -9.62019e-05 25.6432 1.00415 24.717 2.3174C23.3276 4.1714 22.4014 4.6349 20.2402 4.6349C18.1561 4.6349 16.9211 4.0169 15.3002 2.3174C14.1424 1.00415 12.4443 -9.62019e-05 11.5952 -9.62019e-05C10.7462 -9.62019e-05 7.89026 1.77665 5.18872 3.93965Z" fill="#D80434"/>
</svg>
