<svg width="36" height="32" viewBox="0 0 36 32" fill="none" xmlns="http://www.w3.org/2000/svg">
<path d="M35.4125 3.41719C36.1937 2.63594 36.1937 1.36719 35.4125 0.585938C34.6312 -0.195312 33.3625 -0.195312 32.5812 0.585938L20.5812 12.5859L18.4125 10.4172C18.15 10.1547 17.7875 10.0047 17.4125 10.0047C16.6313 10.0047 16 10.6359 16 11.4172V13.2359L22.7687 20.0047H24.5875C25.3687 20.0047 26 19.3734 26 18.5922C26 18.2172 25.85 17.8547 25.5875 17.5922L23.4188 15.4234L35.4188 3.42344L35.4125 3.41719ZM21.3188 22.0922L13.9125 14.6859C11.2438 14.4547 8.5875 15.4172 6.675 17.3297L6.175 17.8297C4.78125 19.2234 4 21.1109 4 23.0797C4 23.5047 4.44375 23.7797 4.825 23.5922L8.01875 21.9984C8.33125 21.8422 8.6125 22.2547 8.35625 22.4922L0.45625 29.5922C0.16875 29.8547 0 30.2297 0 30.6234C0 31.3859 0.61875 32.0047 1.38125 32.0047H12.2125C14.6375 32.0047 16.9562 31.0422 18.675 29.3297C20.5875 27.4172 21.5438 24.7609 21.3188 22.0922Z" fill="#D80434"/>
</svg>
