<svg width="32" height="34" viewBox="0 0 32 34" fill="none" xmlns="http://www.w3.org/2000/svg">
<g clip-path="url(#clip0_129_145)">
<path d="M16 17C13.5752 17 11.2496 16.1045 9.53502 14.5104C7.8204 12.9163 6.85714 10.7543 6.85714 8.5C6.85714 6.24566 7.8204 4.08365 9.53502 2.48959C11.2496 0.895533 13.5752 0 16 0C18.4248 0 20.7504 0.895533 22.465 2.48959C24.1796 4.08365 25.1429 6.24566 25.1429 8.5C25.1429 10.7543 24.1796 12.9163 22.465 14.5104C20.7504 16.1045 18.4248 17 16 17ZM19.2643 20.1875C26.3 20.1875 32 25.4867 32 32.0277C32 33.1168 31.05 34 29.8786 34H2.12143C0.95 34 -1.43051e-06 33.1168 -1.43051e-06 32.0277C-1.43051e-06 25.4867 5.7 20.1875 12.7357 20.1875H19.2643Z" fill="#D80434"/>
</g>
<defs>
<clipPath id="clip0_129_145">
<rect width="32" height="34" fill="white" transform="matrix(-1 0 0 1 32 0)"/>
</clipPath>
</defs>
</svg>
