<svg width="40" height="29" viewBox="0 0 40 29" fill="none" xmlns="http://www.w3.org/2000/svg">
<path d="M0.425187 0.42776C-0.141729 1.00618 -0.141729 27.6134 0.425187 28.1918C0.658623 28.43 1.39228 28.6001 2.09259 28.6001C3.5599 28.6001 4.02677 27.9536 4.02677 25.9122V24.5172H20.0338H36.0409V26.1503C36.0409 28.1238 36.4411 28.6001 38.1085 28.6001C39.0422 28.6001 39.4424 28.43 39.7092 27.8856C39.9759 27.4092 40.0426 24.5512 39.9759 18.9711C39.8759 11.1115 39.8426 10.6692 39.1089 9.37622C38.6754 8.62768 37.8083 7.60694 37.1414 7.16462C35.9408 6.31401 35.8408 6.31401 27.4704 6.21194C21.2677 6.14389 18.8666 6.21194 18.4998 6.51816C18.133 6.82438 18.0329 8.08329 18.0329 12.6426V18.3927H11.0299H4.02677V9.85256C4.02677 4.64681 3.89338 1.07423 3.69329 0.665932C3.29312 -0.0826087 1.09215 -0.252732 0.425187 0.42776Z" fill="#D80434"/>
<path d="M8.76193 6.82428C7.66145 7.33465 7.19458 7.811 6.69436 8.93381C5.86066 10.8392 5.86066 11.7919 6.7944 13.6292C8.19502 16.4873 11.7633 17.1337 14.1643 14.9902C16.8655 12.5744 16.0985 8.04917 12.797 6.62014C11.3631 5.97367 10.4627 6.04172 8.76193 6.82428Z" fill="#D80434"/>
</svg>
