<svg width="32" height="24" viewBox="0 0 32 24" fill="none" xmlns="http://www.w3.org/2000/svg">
<path d="M3.55556 0.75C1.59444 0.75 0 2.43164 0 4.5V19.5C0 21.5684 1.59444 23.25 3.55556 23.25H28.4444C30.4056 23.25 32 21.5684 32 19.5V4.5C32 2.43164 30.4056 0.75 28.4444 0.75H3.55556ZM7.11111 19.5H3.55556V15.75C5.51667 15.75 7.11111 17.4316 7.11111 19.5ZM3.55556 8.25V4.5H7.11111C7.11111 6.56836 5.51667 8.25 3.55556 8.25ZM24.8889 19.5C24.8889 17.4316 26.4833 15.75 28.4444 15.75V19.5H24.8889ZM28.4444 8.25C26.4833 8.25 24.8889 6.56836 24.8889 4.5H28.4444V8.25ZM16 6.375C17.4145 6.375 18.771 6.96763 19.7712 8.02252C20.7714 9.07742 21.3333 10.5082 21.3333 12C21.3333 13.4918 20.7714 14.9226 19.7712 15.9775C18.771 17.0324 17.4145 17.625 16 17.625C14.5855 17.625 13.229 17.0324 12.2288 15.9775C11.2286 14.9226 10.6667 13.4918 10.6667 12C10.6667 10.5082 11.2286 9.07742 12.2288 8.02252C13.229 6.96763 14.5855 6.375 16 6.375Z" fill="#D80434"/>
</svg>
