<svg width="32" height="33" viewBox="0 0 32 33" fill="none" xmlns="http://www.w3.org/2000/svg">
<g clip-path="url(#clip0_129_152)">
<path d="M9.14286 0C10.4071 0 11.4286 0.92168 11.4286 2.0625V4.125H20.5714V2.0625C20.5714 0.92168 21.5929 0 22.8571 0C24.1214 0 25.1429 0.92168 25.1429 2.0625V4.125H28.5714C30.4643 4.125 32 5.51074 32 7.21875V10.3125H0V7.21875C0 5.51074 1.53571 4.125 3.42857 4.125H6.85714V2.0625C6.85714 0.92168 7.87857 0 9.14286 0ZM0 12.375H32V29.9062C32 31.6143 30.4643 33 28.5714 33H3.42857C1.53571 33 0 31.6143 0 29.9062V12.375ZM4.57143 17.5312V19.5938C4.57143 20.1609 5.08571 20.625 5.71429 20.625H8C8.62857 20.625 9.14286 20.1609 9.14286 19.5938V17.5312C9.14286 16.9641 8.62857 16.5 8 16.5H5.71429C5.08571 16.5 4.57143 16.9641 4.57143 17.5312ZM13.7143 17.5312V19.5938C13.7143 20.1609 14.2286 20.625 14.8571 20.625H17.1429C17.7714 20.625 18.2857 20.1609 18.2857 19.5938V17.5312C18.2857 16.9641 17.7714 16.5 17.1429 16.5H14.8571C14.2286 16.5 13.7143 16.9641 13.7143 17.5312ZM24 16.5C23.3714 16.5 22.8571 16.9641 22.8571 17.5312V19.5938C22.8571 20.1609 23.3714 20.625 24 20.625H26.2857C26.9143 20.625 27.4286 20.1609 27.4286 19.5938V17.5312C27.4286 16.9641 26.9143 16.5 26.2857 16.5H24ZM4.57143 25.7812V27.8438C4.57143 28.4109 5.08571 28.875 5.71429 28.875H8C8.62857 28.875 9.14286 28.4109 9.14286 27.8438V25.7812C9.14286 25.2141 8.62857 24.75 8 24.75H5.71429C5.08571 24.75 4.57143 25.2141 4.57143 25.7812ZM14.8571 24.75C14.2286 24.75 13.7143 25.2141 13.7143 25.7812V27.8438C13.7143 28.4109 14.2286 28.875 14.8571 28.875H17.1429C17.7714 28.875 18.2857 28.4109 18.2857 27.8438V25.7812C18.2857 25.2141 17.7714 24.75 17.1429 24.75H14.8571ZM22.8571 25.7812V27.8438C22.8571 28.4109 23.3714 28.875 24 28.875H26.2857C26.9143 28.875 27.4286 28.4109 27.4286 27.8438V25.7812C27.4286 25.2141 26.9143 24.75 26.2857 24.75H24C23.3714 24.75 22.8571 25.2141 22.8571 25.7812Z" fill="#D80434"/>
</g>
<defs>
<clipPath id="clip0_129_152">
<rect width="32" height="33" fill="white"/>
</clipPath>
</defs>
</svg>
