<svg width="40" height="28" viewBox="0 0 40 28" fill="none" xmlns="http://www.w3.org/2000/svg">
<path d="M3.38712 10.6812C7.69962 6.54375 13.5496 4 19.9996 4C26.4496 4 32.2996 6.54375 36.6121 10.6812C37.4121 11.4437 38.6746 11.4187 39.4371 10.625C40.1996 9.83125 40.1746 8.5625 39.3809 7.8C34.3559 2.96875 27.5246 0 19.9996 0C12.4746 0 5.64337 2.96875 0.612116 7.79375C-0.181634 8.5625 -0.206634 9.825 0.555866 10.625C1.31837 11.425 2.58712 11.45 3.38087 10.6812H3.38712ZM19.9996 14C23.5496 14 26.7871 15.3187 29.2621 17.5C30.0934 18.2312 31.3559 18.15 32.0871 17.325C32.8184 16.5 32.7371 15.2312 31.9121 14.5C28.7371 11.7 24.5621 10 19.9996 10C15.4371 10 11.2621 11.7 8.09337 14.5C7.26212 15.2312 7.18712 16.4938 7.91837 17.325C8.64962 18.1563 9.91212 18.2312 10.7434 17.5C13.2121 15.3187 16.4496 14 20.0059 14H19.9996ZM23.9996 24C23.9996 22.9391 23.5782 21.9217 22.828 21.1716C22.0779 20.4214 21.0605 20 19.9996 20C18.9388 20 17.9213 20.4214 17.1712 21.1716C16.421 21.9217 15.9996 22.9391 15.9996 24C15.9996 25.0609 16.421 26.0783 17.1712 26.8284C17.9213 27.5786 18.9388 28 19.9996 28C21.0605 28 22.0779 27.5786 22.828 26.8284C23.5782 26.0783 23.9996 25.0609 23.9996 24Z" fill="#D80434"/>
</svg>
