<svg width="38" height="38" viewBox="0 0 38 38" fill="none" xmlns="http://www.w3.org/2000/svg">
<path d="M26.916 4.74991C27.3319 4.33406 27.8256 4.00418 28.3689 3.77913C28.9122 3.55407 29.4946 3.43823 30.0827 3.43823C30.6708 3.43823 31.2531 3.55407 31.7965 3.77913C32.3398 4.00418 32.8335 4.33406 33.2493 4.74991C33.6652 5.16576 33.9951 5.65945 34.2201 6.20279C34.4452 6.74613 34.561 7.32847 34.561 7.91658C34.561 8.50468 34.4452 9.08703 34.2201 9.63036C33.9951 10.1737 33.6652 10.6674 33.2493 11.0832L11.8743 32.4582L3.16602 34.8332L5.54102 26.1249L26.916 4.74991Z" stroke="#4D4D4D" stroke-width="4" stroke-linecap="round" stroke-linejoin="round"/>
</svg>
