<svg width="52" height="47" viewBox="0 0 52 47" fill="none" xmlns="http://www.w3.org/2000/svg">
<path d="M14.9042 33.581C10.9177 31.065 7.76307 27.7922 5.98048 25.7256C5.48201 25.1552 5.21143 24.4534 5.21143 23.731C5.21143 23.0087 5.48201 22.3069 5.98048 21.7365C9.20643 17.9932 16.9461 10.2856 25.9822 10.2856C30.0357 10.2856 33.8256 11.8356 37.0667 13.8849" stroke="#C4C4C4" stroke-width="2" stroke-linecap="round" stroke-linejoin="round"/>
<path d="M30.5844 19.6721C29.9843 19.1298 29.2694 18.6986 28.4809 18.4031C27.6924 18.1077 26.8459 17.9539 25.9903 17.9507C25.1346 17.9475 24.2867 18.095 23.4954 18.3845C22.7041 18.6741 21.9852 19.1001 21.3801 19.6378C20.7749 20.1756 20.2956 20.8145 19.9696 21.5178C19.6437 22.2211 19.4776 22.9748 19.481 23.7354C19.4844 24.496 19.6572 25.2485 19.9893 25.9494C20.3215 26.6504 20.8066 27.2859 21.4165 27.8194" stroke="#C4C4C4" stroke-width="2" stroke-linecap="round" stroke-linejoin="round"/>
<path d="M8.69629 39.0954L43.2677 8.36523" stroke="#C4C4C4" stroke-width="2" stroke-linecap="round" stroke-linejoin="round"/>
<path d="M21.6606 36.6061C23.0634 36.9773 24.5185 37.1687 25.9821 37.1746C35.0182 37.1746 42.7579 29.4671 45.9838 25.7238C46.4821 25.1528 46.7524 24.4506 46.752 23.7279C46.7517 23.0053 46.4806 22.3033 45.9816 21.7327C44.8479 20.418 43.6317 19.1612 42.3387 17.9683" stroke="#C4C4C4" stroke-width="2" stroke-linecap="round" stroke-linejoin="round"/>
</svg>
