<svg width="40" height="40" viewBox="0 0 40 40" fill="none" xmlns="http://www.w3.org/2000/svg">
<g clip-path="url(#clip0_182_203)">
<path d="M38.3327 6.66663V16.6666M38.3327 16.6666H28.3327M38.3327 16.6666L30.5993 9.39996C28.8081 7.60782 26.5921 6.29864 24.158 5.59459C21.7239 4.89053 19.1512 4.81455 16.6798 5.37373C14.2085 5.93291 11.919 7.10902 10.0251 8.79233C8.13124 10.4756 6.69463 12.6113 5.84935 15M1.66602 33.3333V23.3333M1.66602 23.3333H11.666M1.66602 23.3333L9.39935 30.6C11.1906 32.3921 13.4066 33.7013 15.8407 34.4053C18.2748 35.1094 20.8475 35.1854 23.3189 34.6262C25.7902 34.067 28.0797 32.8909 29.9736 31.2076C31.8675 29.5243 33.3041 27.3887 34.1493 25" stroke="#4D4D4D" stroke-width="4" stroke-linecap="round" stroke-linejoin="round"/>
</g>
<defs>
<clipPath id="clip0_182_203">
<rect width="40" height="40" fill="white"/>
</clipPath>
</defs>
</svg>
