<svg width="35" height="35" viewBox="0 0 35 35" fill="none" xmlns="http://www.w3.org/2000/svg">
<g clip-path="url(#clip0_118_117)">
<path fill-rule="evenodd" clip-rule="evenodd" d="M32.4652 0H2.63812C1.21133 0 0 1.1282 0 2.51843V32.4803C0 33.8718 0.794951 35 2.22113 35H32.0482C33.4768 35 35 33.8718 35 32.4803V2.51843C35 1.1282 33.8932 0 32.4652 0ZM13.333 13.333H18.0449V15.7349H18.0965C18.8146 14.4398 20.9362 13.1251 23.5599 13.1251C28.5949 13.1251 30.0003 15.7985 30.0003 20.7498V30.0003H24.9999V21.6619C24.9999 19.4452 24.1149 17.5 22.0449 17.5C19.5315 17.5 18.3334 19.2014 18.3334 21.9952V30.0003H13.333V13.333ZM4.99974 30.0003H10.0001V13.333H4.99974V30.0003ZM10.625 7.49991C10.625 9.22653 9.22653 10.625 7.49991 10.625C5.77329 10.625 4.37486 9.22653 4.37486 7.49991C4.37486 5.77329 5.77329 4.37486 7.49991 4.37486C9.22653 4.37486 10.625 5.77329 10.625 7.49991Z" fill="white"/>
</g>
<defs>
<clipPath id="clip0_118_117">
<rect width="35" height="35" fill="white"/>
</clipPath>
</defs>
</svg>
