<svg width="35" height="35" viewBox="0 0 35 35" fill="none" xmlns="http://www.w3.org/2000/svg">
<g clip-path="url(#clip0_118_110)">
<path fill-rule="evenodd" clip-rule="evenodd" d="M17.5 0C27.1649 0 35 7.83508 35 17.5C35 27.1649 27.1649 35 17.5 35C7.83508 35 0 27.1649 0 17.5C0 7.83508 7.83508 0 17.5 0ZM23.1695 11.9458C22.1705 11.2947 21.4501 10.2525 21.225 9.03813C21.1754 8.7714 21.1502 8.50069 21.1497 8.22938H17.962L17.9569 21.0042C17.9034 22.4348 16.7258 23.583 15.2828 23.583C14.8495 23.5831 14.4227 23.4775 14.0396 23.2751C13.1866 22.8264 12.6029 21.9325 12.6029 20.9037C12.6029 19.4262 13.8052 18.2239 15.2822 18.2239C15.558 18.2239 15.8227 18.2695 16.0729 18.3476V15.0935C15.8138 15.0581 15.5506 15.0363 15.2822 15.0363C12.0472 15.0363 9.41534 17.6681 9.41534 20.9037C9.41534 22.8886 10.4068 24.6452 11.9202 25.7074C12.8732 26.3767 14.0326 26.7706 15.2828 26.7706C18.5178 26.7706 21.1497 24.1388 21.1497 20.9037V14.4256C22.3999 15.3228 23.9318 15.8515 25.5847 15.8515V12.6638C24.6945 12.6638 23.8653 12.3993 23.1695 11.9458Z" fill="white"/>
</g>
<defs>
<clipPath id="clip0_118_110">
<rect width="35" height="35" fill="white"/>
</clipPath>
</defs>
</svg>
